<svg width="146.895" height="34.02" viewBox="0 0 146.895 34.02" xmlns="http://www.w3.org/2000/svg"><g id="svgGroup" stroke-linecap="round" fill-rule="evenodd" font-size="9pt" stroke="#ffffff" stroke-width="0.25mm" fill="#ffffff" style="stroke:#ffffff;stroke-width:0.25mm;fill:#ffffff"><path d="M 126.84 26.6 L 126.84 24.71 L 129.22 24.71 L 129.22 3.22 L 126.84 2.765 L 126.84 1.225 L 133.14 0 L 133.14 11.235 L 133.315 11.235 A 4.203 4.203 0 0 1 133.655 10.51 A 5.36 5.36 0 0 1 133.963 10.045 Q 134.4 9.45 135.03 8.995 A 5.079 5.079 0 0 1 135.971 8.463 A 6.241 6.241 0 0 1 136.5 8.26 A 5.369 5.369 0 0 1 137.57 8.027 A 6.988 6.988 0 0 1 138.39 7.98 Q 140.363 7.98 141.659 8.578 A 4.057 4.057 0 0 1 143.115 9.678 Q 144.15 10.932 144.42 13.114 A 13.514 13.514 0 0 1 144.515 14.77 L 144.515 24.71 L 146.895 24.71 L 146.895 26.6 L 138.285 26.6 L 138.285 24.71 L 140.595 24.71 L 140.595 14.98 A 9.384 9.384 0 0 0 140.526 13.797 Q 140.349 12.41 139.72 11.655 Q 138.845 10.605 136.955 10.605 Q 136.255 10.605 135.573 10.798 Q 134.89 10.99 134.348 11.393 Q 133.805 11.795 133.473 12.39 A 2.53 2.53 0 0 0 133.204 13.137 Q 133.141 13.453 133.14 13.814 A 4.215 4.215 0 0 0 133.14 13.825 L 133.14 24.71 L 135.45 24.71 L 135.45 26.6 L 126.84 26.6 Z M 54.11 26.6 L 54.11 24.71 L 56.49 24.71 L 56.49 11.2 L 54.11 10.745 L 54.11 9.205 L 60.305 7.98 L 60.305 11.235 L 60.48 11.235 A 4.203 4.203 0 0 1 60.82 10.51 A 5.36 5.36 0 0 1 61.128 10.045 A 4.6 4.6 0 0 1 62.088 9.085 A 5.236 5.236 0 0 1 62.213 8.995 A 5.279 5.279 0 0 1 63.153 8.473 A 6.483 6.483 0 0 1 63.718 8.26 A 5.534 5.534 0 0 1 64.754 8.034 A 7.346 7.346 0 0 1 65.66 7.98 Q 67.633 7.98 68.929 8.578 A 4.057 4.057 0 0 1 70.385 9.678 Q 71.42 10.932 71.69 13.114 A 13.514 13.514 0 0 1 71.785 14.77 L 71.785 24.71 L 74.165 24.71 L 74.165 26.6 L 65.555 26.6 L 65.555 24.71 L 67.865 24.71 L 67.865 14.98 A 9.384 9.384 0 0 0 67.796 13.797 Q 67.619 12.41 66.99 11.655 Q 66.115 10.605 64.225 10.605 Q 63.525 10.605 62.843 10.798 Q 62.16 10.99 61.618 11.393 Q 61.075 11.795 60.743 12.39 A 2.53 2.53 0 0 0 60.474 13.137 Q 60.411 13.453 60.41 13.814 A 4.215 4.215 0 0 0 60.41 13.825 L 60.41 24.71 L 62.72 24.71 L 62.72 26.6 L 54.11 26.6 Z M 80.29 26.285 L 80.29 26.145 A 3.887 3.887 0 0 1 79.387 25.78 A 2.972 2.972 0 0 1 78.505 25.025 Q 77.875 24.22 77.875 22.995 Q 77.875 21.49 78.838 20.65 A 5.52 5.52 0 0 1 80.864 19.536 A 6.503 6.503 0 0 1 81.13 19.46 L 81.13 19.32 A 6.525 6.525 0 0 1 79.421 18.294 A 5.764 5.764 0 0 1 78.47 17.273 A 5.052 5.052 0 0 1 77.586 15.13 A 6.824 6.824 0 0 1 77.49 13.965 A 6.215 6.215 0 0 1 77.662 12.479 A 5.219 5.219 0 0 1 78.033 11.445 Q 78.575 10.325 79.538 9.555 A 6.418 6.418 0 0 1 81.111 8.638 A 7.846 7.846 0 0 1 81.83 8.383 A 9.315 9.315 0 0 1 83.602 8.037 A 11.706 11.706 0 0 1 84.77 7.98 A 13.177 13.177 0 0 1 85.882 8.024 Q 86.426 8.071 86.894 8.165 A 6.553 6.553 0 0 1 87.43 8.295 Q 88.515 8.61 89.425 9.205 A 8.132 8.132 0 0 1 89.514 8.228 Q 89.679 7.18 90.129 6.586 A 2.078 2.078 0 0 1 90.3 6.388 A 2.704 2.704 0 0 1 92.095 5.575 A 3.644 3.644 0 0 1 92.365 5.565 A 2.479 2.479 0 0 1 93.062 5.659 A 1.964 1.964 0 0 1 93.818 6.073 A 1.659 1.659 0 0 1 94.359 7.059 A 2.445 2.445 0 0 1 94.395 7.49 A 2.127 2.127 0 0 1 94.291 8.168 A 1.786 1.786 0 0 1 93.853 8.873 Q 93.31 9.415 92.365 9.415 A 2.325 2.325 0 0 1 91.466 9.246 A 2.171 2.171 0 0 1 90.65 8.645 L 90.51 8.645 L 90.51 10.08 A 5.82 5.82 0 0 1 91.209 10.933 A 7.485 7.485 0 0 1 91.63 11.638 A 3.936 3.936 0 0 1 91.982 12.611 Q 92.085 13.068 92.111 13.599 A 7.477 7.477 0 0 1 92.12 13.965 A 6.215 6.215 0 0 1 91.948 15.452 A 5.219 5.219 0 0 1 91.577 16.485 Q 91.035 17.605 90.055 18.375 A 6.792 6.792 0 0 1 88.495 19.285 A 8.335 8.335 0 0 1 87.727 19.565 A 9.248 9.248 0 0 1 85.846 19.935 A 11.375 11.375 0 0 1 84.77 19.985 A 9.175 9.175 0 0 1 83.907 19.946 A 8.098 8.098 0 0 1 83.633 19.915 Q 83.09 19.845 82.565 19.74 A 3.507 3.507 0 0 0 81.626 20.212 A 3.197 3.197 0 0 0 81.305 20.475 Q 80.78 20.965 80.78 21.665 A 1.65 1.65 0 0 0 80.84 22.124 A 1.141 1.141 0 0 0 81.392 22.82 A 1.984 1.984 0 0 0 81.829 22.997 Q 82.431 23.17 83.44 23.17 L 87.535 23.17 A 13.725 13.725 0 0 1 89.287 23.274 Q 91.168 23.517 92.256 24.328 A 3.84 3.84 0 0 1 92.47 24.5 Q 94.01 25.83 94.01 28.14 Q 94.01 30.87 91.683 32.445 Q 89.451 33.955 85.048 34.017 A 27.071 27.071 0 0 1 84.665 34.02 A 29.834 29.834 0 0 1 83.036 33.978 Q 82.261 33.936 81.593 33.85 A 13.92 13.92 0 0 1 80.78 33.723 A 11.898 11.898 0 0 1 79.772 33.489 Q 79.27 33.348 78.855 33.174 A 5.349 5.349 0 0 1 78.26 32.883 A 4.169 4.169 0 0 1 77.556 32.381 A 3.007 3.007 0 0 1 76.895 31.553 A 3.61 3.61 0 0 1 76.475 29.879 A 4.221 4.221 0 0 1 76.475 29.82 A 2.696 2.696 0 0 1 76.638 28.877 A 2.534 2.534 0 0 1 76.79 28.543 Q 77.105 27.965 77.63 27.528 A 5.011 5.011 0 0 1 78.435 26.984 A 6.017 6.017 0 0 1 78.855 26.775 Q 79.555 26.46 80.29 26.285 Z M 99.89 26.285 L 99.89 26.145 A 3.887 3.887 0 0 1 98.987 25.78 A 2.972 2.972 0 0 1 98.105 25.025 Q 97.475 24.22 97.475 22.995 Q 97.475 21.49 98.438 20.65 A 5.52 5.52 0 0 1 100.464 19.536 A 6.503 6.503 0 0 1 100.73 19.46 L 100.73 19.32 A 6.525 6.525 0 0 1 99.021 18.294 A 5.764 5.764 0 0 1 98.07 17.273 A 5.052 5.052 0 0 1 97.186 15.13 A 6.824 6.824 0 0 1 97.09 13.965 A 6.215 6.215 0 0 1 97.262 12.479 A 5.219 5.219 0 0 1 97.633 11.445 Q 98.175 10.325 99.138 9.555 A 6.418 6.418 0 0 1 100.711 8.638 A 7.846 7.846 0 0 1 101.43 8.383 A 9.315 9.315 0 0 1 103.202 8.037 A 11.706 11.706 0 0 1 104.37 7.98 A 13.177 13.177 0 0 1 105.482 8.024 Q 106.026 8.071 106.494 8.165 A 6.553 6.553 0 0 1 107.03 8.295 Q 108.115 8.61 109.025 9.205 A 8.132 8.132 0 0 1 109.114 8.228 Q 109.279 7.18 109.729 6.586 A 2.078 2.078 0 0 1 109.9 6.388 A 2.704 2.704 0 0 1 111.695 5.575 A 3.644 3.644 0 0 1 111.965 5.565 A 2.479 2.479 0 0 1 112.662 5.659 A 1.964 1.964 0 0 1 113.418 6.073 A 1.659 1.659 0 0 1 113.959 7.059 A 2.445 2.445 0 0 1 113.995 7.49 A 2.127 2.127 0 0 1 113.891 8.168 A 1.786 1.786 0 0 1 113.453 8.873 Q 112.91 9.415 111.965 9.415 A 2.325 2.325 0 0 1 111.066 9.246 A 2.171 2.171 0 0 1 110.25 8.645 L 110.11 8.645 L 110.11 10.08 A 5.82 5.82 0 0 1 110.809 10.933 A 7.485 7.485 0 0 1 111.23 11.638 A 3.936 3.936 0 0 1 111.582 12.611 Q 111.685 13.068 111.711 13.599 A 7.477 7.477 0 0 1 111.72 13.965 A 6.215 6.215 0 0 1 111.548 15.452 A 5.219 5.219 0 0 1 111.177 16.485 Q 110.635 17.605 109.655 18.375 A 6.792 6.792 0 0 1 108.095 19.285 A 8.335 8.335 0 0 1 107.327 19.565 A 9.248 9.248 0 0 1 105.446 19.935 A 11.375 11.375 0 0 1 104.37 19.985 A 9.175 9.175 0 0 1 103.507 19.946 A 8.098 8.098 0 0 1 103.233 19.915 Q 102.69 19.845 102.165 19.74 A 3.507 3.507 0 0 0 101.226 20.212 A 3.197 3.197 0 0 0 100.905 20.475 Q 100.38 20.965 100.38 21.665 A 1.65 1.65 0 0 0 100.44 22.124 A 1.141 1.141 0 0 0 100.992 22.82 A 1.984 1.984 0 0 0 101.429 22.997 Q 102.031 23.17 103.04 23.17 L 107.135 23.17 A 13.725 13.725 0 0 1 108.887 23.274 Q 110.768 23.517 111.856 24.328 A 3.84 3.84 0 0 1 112.07 24.5 Q 113.61 25.83 113.61 28.14 Q 113.61 30.87 111.283 32.445 Q 109.051 33.955 104.648 34.017 A 27.071 27.071 0 0 1 104.265 34.02 A 29.834 29.834 0 0 1 102.636 33.978 Q 101.861 33.936 101.193 33.85 A 13.92 13.92 0 0 1 100.38 33.723 A 11.898 11.898 0 0 1 99.372 33.489 Q 98.87 33.348 98.455 33.174 A 5.349 5.349 0 0 1 97.86 32.883 A 4.169 4.169 0 0 1 97.156 32.381 A 3.007 3.007 0 0 1 96.495 31.553 A 3.61 3.61 0 0 1 96.075 29.879 A 4.221 4.221 0 0 1 96.075 29.82 A 2.696 2.696 0 0 1 96.238 28.877 A 2.534 2.534 0 0 1 96.39 28.543 Q 96.705 27.965 97.23 27.528 A 5.011 5.011 0 0 1 98.035 26.984 A 6.017 6.017 0 0 1 98.455 26.775 Q 99.155 26.46 99.89 26.285 Z M 16.275 24.78 L 16.135 24.78 L 16.135 26.6 L 13.475 26.6 L 13.475 21.175 L 16.135 21.175 L 16.135 21.805 A 3.827 3.827 0 0 0 16.253 22.78 A 2.715 2.715 0 0 0 17.045 24.115 Q 17.92 24.923 19.832 24.954 A 9.507 9.507 0 0 0 19.985 24.955 Q 23.661 24.955 23.762 22.439 A 3.595 3.595 0 0 0 23.765 22.295 Q 23.765 20.23 21.035 19.565 L 19.145 19.11 Q 16.345 18.445 14.98 17.08 A 4.514 4.514 0 0 1 13.776 14.851 A 6.732 6.732 0 0 1 13.615 13.335 A 6.08 6.08 0 0 1 13.836 11.648 A 4.451 4.451 0 0 1 15.33 9.38 A 5.947 5.947 0 0 1 17.669 8.234 Q 18.547 8.012 19.581 7.984 A 11.127 11.127 0 0 1 19.88 7.98 A 8.382 8.382 0 0 1 20.989 8.049 Q 21.55 8.124 22.015 8.281 A 3.836 3.836 0 0 1 22.68 8.575 A 4.082 4.082 0 0 1 23.309 9.008 Q 23.639 9.288 23.844 9.609 A 2.145 2.145 0 0 1 24.045 10.01 L 24.185 10.01 L 24.185 8.4 L 26.845 8.4 L 26.845 13.825 L 24.185 13.825 L 24.185 12.81 Q 24.185 10.428 21.405 10.098 A 8.215 8.215 0 0 0 20.44 10.045 A 6.792 6.792 0 0 0 19.513 10.104 Q 18.564 10.235 17.973 10.658 A 1.99 1.99 0 0 0 17.148 12.04 A 3.038 3.038 0 0 0 17.115 12.495 Q 17.115 14.439 19.361 15.203 A 6.96 6.96 0 0 0 19.915 15.365 L 21.7 15.785 A 14.544 14.544 0 0 1 23.332 16.242 Q 24.152 16.528 24.803 16.891 A 6.01 6.01 0 0 1 25.935 17.693 Q 27.335 18.97 27.335 21.455 A 5.693 5.693 0 0 1 27.02 23.387 A 4.89 4.89 0 0 1 25.533 25.498 A 6.124 6.124 0 0 1 23.14 26.718 Q 22.022 27.02 20.65 27.02 A 7.462 7.462 0 0 1 19.453 26.93 Q 18.803 26.824 18.271 26.594 A 3.909 3.909 0 0 1 17.745 26.32 A 5.39 5.39 0 0 1 17.12 25.869 Q 16.516 25.358 16.275 24.78 Z M 30.065 31.43 L 30.065 29.54 L 33.53 29.54 L 33.53 20.51 Q 33.53 19.635 33.845 18.865 Q 34.16 18.095 34.703 17.5 Q 35.245 16.905 35.945 16.503 Q 36.645 16.1 37.45 15.96 L 37.45 15.47 Q 36.645 15.33 35.945 14.928 Q 35.245 14.525 34.703 13.93 Q 34.16 13.335 33.845 12.565 Q 33.53 11.795 33.53 10.92 L 33.53 1.89 L 30.065 1.89 L 30.065 0 L 33.74 0 A 5.557 5.557 0 0 1 34.699 0.077 Q 35.219 0.169 35.627 0.368 A 2.466 2.466 0 0 1 36.33 0.875 A 2.869 2.869 0 0 1 37.02 2.121 Q 37.142 2.559 37.165 3.08 A 5.604 5.604 0 0 1 37.17 3.325 L 37.17 11.55 A 3.785 3.785 0 0 0 37.277 12.48 A 2.512 2.512 0 0 0 38.168 13.878 Q 39.165 14.665 40.705 14.665 L 40.705 16.765 Q 39.165 16.765 38.168 17.553 A 2.538 2.538 0 0 0 37.249 19.073 A 3.903 3.903 0 0 0 37.17 19.88 L 37.17 28.105 Q 37.17 29.353 36.642 30.162 A 2.686 2.686 0 0 1 36.33 30.555 A 2.589 2.589 0 0 1 35.303 31.197 Q 34.642 31.43 33.74 31.43 L 30.065 31.43 Z M 3.535 28.105 L 3.535 19.88 A 3.785 3.785 0 0 0 3.428 18.951 A 2.512 2.512 0 0 0 2.537 17.553 Q 1.54 16.765 0 16.765 L 0 14.665 Q 1.54 14.665 2.538 13.878 A 2.538 2.538 0 0 0 3.456 12.357 A 3.903 3.903 0 0 0 3.535 11.55 L 3.535 3.325 Q 3.535 2.077 4.063 1.268 A 2.686 2.686 0 0 1 4.375 0.875 A 2.325 2.325 0 0 1 4.388 0.861 Q 5.066 0.167 6.327 0.032 A 6.027 6.027 0 0 1 6.965 0 L 10.64 0 L 10.64 1.89 L 7.175 1.89 L 7.175 10.92 Q 7.175 11.795 6.86 12.565 Q 6.545 13.335 6.003 13.93 Q 5.46 14.525 4.743 14.928 Q 4.025 15.33 3.255 15.47 L 3.255 15.96 Q 4.025 16.1 4.743 16.503 Q 5.46 16.905 6.003 17.5 Q 6.545 18.095 6.86 18.865 Q 7.175 19.635 7.175 20.51 L 7.175 29.54 L 10.64 29.54 L 10.64 31.43 L 6.965 31.43 A 5.557 5.557 0 0 1 6.006 31.353 Q 5.486 31.262 5.078 31.062 A 2.466 2.466 0 0 1 4.375 30.555 A 2.869 2.869 0 0 1 3.685 29.309 Q 3.563 28.871 3.54 28.35 A 5.604 5.604 0 0 1 3.535 28.105 Z M 42.805 26.6 L 42.805 24.71 L 45.185 24.71 L 45.185 11.2 L 42.805 10.745 L 42.805 9.205 L 49.105 7.98 L 49.105 24.71 L 51.485 24.71 L 51.485 26.6 L 42.805 26.6 Z M 115.99 26.6 L 115.99 24.71 L 118.37 24.71 L 118.37 11.2 L 115.99 10.745 L 115.99 9.205 L 122.29 7.98 L 122.29 24.71 L 124.67 24.71 L 124.67 26.6 L 115.99 26.6 Z M 83.93 32.06 L 85.82 32.06 A 12.129 12.129 0 0 0 87.168 31.99 Q 87.834 31.916 88.383 31.761 A 4.612 4.612 0 0 0 89.478 31.308 A 2.927 2.927 0 0 0 90.192 30.733 A 2.246 2.246 0 0 0 90.755 29.19 A 2.901 2.901 0 0 0 90.675 28.487 A 1.803 1.803 0 0 0 89.898 27.37 A 2.688 2.688 0 0 0 89.239 27.069 Q 88.571 26.857 87.572 26.819 A 11.932 11.932 0 0 0 87.115 26.81 L 81.445 26.81 A 3.457 3.457 0 0 0 80.506 27.505 Q 79.826 28.232 79.77 29.31 A 3.783 3.783 0 0 0 79.765 29.505 Q 79.765 30.734 80.743 31.365 A 2.712 2.712 0 0 0 80.85 31.43 Q 81.935 32.06 83.93 32.06 Z M 103.53 32.06 L 105.42 32.06 A 12.129 12.129 0 0 0 106.768 31.99 Q 107.434 31.916 107.983 31.761 A 4.612 4.612 0 0 0 109.078 31.308 A 2.927 2.927 0 0 0 109.792 30.733 A 2.246 2.246 0 0 0 110.355 29.19 A 2.901 2.901 0 0 0 110.275 28.487 A 1.803 1.803 0 0 0 109.498 27.37 A 2.688 2.688 0 0 0 108.839 27.069 Q 108.171 26.857 107.172 26.819 A 11.932 11.932 0 0 0 106.715 26.81 L 101.045 26.81 A 3.457 3.457 0 0 0 100.106 27.505 Q 99.426 28.232 99.37 29.31 A 3.783 3.783 0 0 0 99.365 29.505 Q 99.365 30.734 100.343 31.365 A 2.712 2.712 0 0 0 100.45 31.43 Q 101.535 32.06 103.53 32.06 Z M 88.165 14.56 L 88.165 13.405 A 5.603 5.603 0 0 0 88.079 12.389 Q 87.896 11.399 87.325 10.78 Q 86.485 9.87 84.805 9.87 Q 83.125 9.87 82.285 10.78 A 2.935 2.935 0 0 0 81.648 11.912 Q 81.509 12.358 81.465 12.897 A 6.287 6.287 0 0 0 81.445 13.405 L 81.445 14.56 A 5.603 5.603 0 0 0 81.531 15.576 Q 81.714 16.567 82.285 17.185 Q 83.125 18.095 84.805 18.095 Q 86.485 18.095 87.325 17.185 A 2.935 2.935 0 0 0 87.962 16.053 Q 88.101 15.607 88.145 15.069 A 6.287 6.287 0 0 0 88.165 14.56 Z M 107.765 14.56 L 107.765 13.405 A 5.603 5.603 0 0 0 107.679 12.389 Q 107.496 11.399 106.925 10.78 Q 106.085 9.87 104.405 9.87 Q 102.725 9.87 101.885 10.78 A 2.935 2.935 0 0 0 101.248 11.912 Q 101.109 12.358 101.065 12.897 A 6.287 6.287 0 0 0 101.045 13.405 L 101.045 14.56 A 5.603 5.603 0 0 0 101.131 15.576 Q 101.314 16.567 101.885 17.185 Q 102.725 18.095 104.405 18.095 Q 106.085 18.095 106.925 17.185 A 2.935 2.935 0 0 0 107.562 16.053 Q 107.701 15.607 107.745 15.069 A 6.287 6.287 0 0 0 107.765 14.56 Z M 44.765 2.695 L 44.765 2.485 A 2.67 2.67 0 0 1 44.876 1.697 A 2.139 2.139 0 0 1 45.395 0.823 A 2.07 2.07 0 0 1 46.433 0.252 A 3.124 3.124 0 0 1 47.145 0.175 Q 48.265 0.175 48.895 0.823 A 2.199 2.199 0 0 1 49.506 2.147 A 2.99 2.99 0 0 1 49.525 2.485 L 49.525 2.695 A 2.67 2.67 0 0 1 49.414 3.483 A 2.139 2.139 0 0 1 48.895 4.358 A 2.07 2.07 0 0 1 47.857 4.929 A 3.124 3.124 0 0 1 47.145 5.005 Q 46.025 5.005 45.395 4.358 A 2.199 2.199 0 0 1 44.784 3.033 A 2.99 2.99 0 0 1 44.765 2.695 Z M 117.95 2.695 L 117.95 2.485 A 2.67 2.67 0 0 1 118.061 1.697 A 2.139 2.139 0 0 1 118.58 0.823 A 2.07 2.07 0 0 1 119.618 0.252 A 3.124 3.124 0 0 1 120.33 0.175 Q 121.45 0.175 122.08 0.823 A 2.199 2.199 0 0 1 122.691 2.147 A 2.99 2.99 0 0 1 122.71 2.485 L 122.71 2.695 A 2.67 2.67 0 0 1 122.599 3.483 A 2.139 2.139 0 0 1 122.08 4.358 A 2.07 2.07 0 0 1 121.042 4.929 A 3.124 3.124 0 0 1 120.33 5.005 Q 119.21 5.005 118.58 4.358 A 2.199 2.199 0 0 1 117.969 3.033 A 2.99 2.99 0 0 1 117.95 2.695 Z" vector-effect="non-scaling-stroke"/></g></svg>