<svg width="40.705" height="31.43" viewBox="0 0 40.705 31.43" xmlns="http://www.w3.org/2000/svg"><g id="svgGroup" stroke-linecap="round" fill-rule="evenodd" font-size="9pt" stroke="#ffffff" stroke-width="0.25mm" fill="#ffffff" style="stroke:#ffffff;stroke-width:0.25mm;fill:#ffffff"><path d="M 16.275 24.78 L 16.135 24.78 L 16.135 26.6 L 13.475 26.6 L 13.475 21.175 L 16.135 21.175 L 16.135 21.805 A 3.827 3.827 0 0 0 16.253 22.78 A 2.715 2.715 0 0 0 17.045 24.115 Q 17.92 24.923 19.832 24.954 A 9.507 9.507 0 0 0 19.985 24.955 Q 23.661 24.955 23.762 22.439 A 3.595 3.595 0 0 0 23.765 22.295 Q 23.765 20.23 21.035 19.565 L 19.145 19.11 Q 16.345 18.445 14.98 17.08 A 4.514 4.514 0 0 1 13.776 14.851 A 6.732 6.732 0 0 1 13.615 13.335 A 6.08 6.08 0 0 1 13.836 11.648 A 4.451 4.451 0 0 1 15.33 9.38 A 5.947 5.947 0 0 1 17.669 8.234 Q 18.547 8.012 19.581 7.984 A 11.127 11.127 0 0 1 19.88 7.98 A 8.382 8.382 0 0 1 20.989 8.049 Q 21.55 8.124 22.015 8.281 A 3.836 3.836 0 0 1 22.68 8.575 A 4.082 4.082 0 0 1 23.309 9.008 Q 23.639 9.288 23.844 9.609 A 2.145 2.145 0 0 1 24.045 10.01 L 24.185 10.01 L 24.185 8.4 L 26.845 8.4 L 26.845 13.825 L 24.185 13.825 L 24.185 12.81 Q 24.185 10.428 21.405 10.098 A 8.215 8.215 0 0 0 20.44 10.045 A 6.792 6.792 0 0 0 19.513 10.104 Q 18.564 10.235 17.973 10.658 A 1.99 1.99 0 0 0 17.148 12.04 A 3.038 3.038 0 0 0 17.115 12.495 Q 17.115 14.439 19.361 15.203 A 6.96 6.96 0 0 0 19.915 15.365 L 21.7 15.785 A 14.544 14.544 0 0 1 23.332 16.242 Q 24.152 16.528 24.803 16.891 A 6.01 6.01 0 0 1 25.935 17.693 Q 27.335 18.97 27.335 21.455 A 5.693 5.693 0 0 1 27.02 23.387 A 4.89 4.89 0 0 1 25.533 25.498 A 6.124 6.124 0 0 1 23.14 26.718 Q 22.022 27.02 20.65 27.02 A 7.462 7.462 0 0 1 19.453 26.93 Q 18.803 26.824 18.271 26.594 A 3.909 3.909 0 0 1 17.745 26.32 A 5.39 5.39 0 0 1 17.12 25.869 Q 16.516 25.358 16.275 24.78 Z M 30.065 31.43 L 30.065 29.54 L 33.53 29.54 L 33.53 20.51 Q 33.53 19.635 33.845 18.865 Q 34.16 18.095 34.703 17.5 Q 35.245 16.905 35.945 16.503 Q 36.645 16.1 37.45 15.96 L 37.45 15.47 Q 36.645 15.33 35.945 14.928 Q 35.245 14.525 34.703 13.93 Q 34.16 13.335 33.845 12.565 Q 33.53 11.795 33.53 10.92 L 33.53 1.89 L 30.065 1.89 L 30.065 0 L 33.74 0 A 5.557 5.557 0 0 1 34.699 0.077 Q 35.219 0.169 35.627 0.368 A 2.466 2.466 0 0 1 36.33 0.875 A 2.869 2.869 0 0 1 37.02 2.121 Q 37.142 2.559 37.165 3.08 A 5.604 5.604 0 0 1 37.17 3.325 L 37.17 11.55 A 3.785 3.785 0 0 0 37.277 12.48 A 2.512 2.512 0 0 0 38.168 13.878 Q 39.165 14.665 40.705 14.665 L 40.705 16.765 Q 39.165 16.765 38.168 17.553 A 2.538 2.538 0 0 0 37.249 19.073 A 3.903 3.903 0 0 0 37.17 19.88 L 37.17 28.105 Q 37.17 29.353 36.642 30.162 A 2.686 2.686 0 0 1 36.33 30.555 A 2.589 2.589 0 0 1 35.303 31.197 Q 34.642 31.43 33.74 31.43 L 30.065 31.43 Z M 3.535 28.105 L 3.535 19.88 A 3.785 3.785 0 0 0 3.428 18.951 A 2.512 2.512 0 0 0 2.537 17.553 Q 1.54 16.765 0 16.765 L 0 14.665 Q 1.54 14.665 2.538 13.878 A 2.538 2.538 0 0 0 3.456 12.357 A 3.903 3.903 0 0 0 3.535 11.55 L 3.535 3.325 Q 3.535 2.077 4.063 1.268 A 2.686 2.686 0 0 1 4.375 0.875 A 2.325 2.325 0 0 1 4.388 0.861 Q 5.066 0.167 6.327 0.032 A 6.027 6.027 0 0 1 6.965 0 L 10.64 0 L 10.64 1.89 L 7.175 1.89 L 7.175 10.92 Q 7.175 11.795 6.86 12.565 Q 6.545 13.335 6.003 13.93 Q 5.46 14.525 4.743 14.928 Q 4.025 15.33 3.255 15.47 L 3.255 15.96 Q 4.025 16.1 4.743 16.503 Q 5.46 16.905 6.003 17.5 Q 6.545 18.095 6.86 18.865 Q 7.175 19.635 7.175 20.51 L 7.175 29.54 L 10.64 29.54 L 10.64 31.43 L 6.965 31.43 A 5.557 5.557 0 0 1 6.006 31.353 Q 5.486 31.262 5.078 31.062 A 2.466 2.466 0 0 1 4.375 30.555 A 2.869 2.869 0 0 1 3.685 29.309 Q 3.563 28.871 3.54 28.35 A 5.604 5.604 0 0 1 3.535 28.105 Z" vector-effect="non-scaling-stroke"/></g></svg>